# xmcd CD database file generated by Grip 2.95
# 
# Track frame offsets:
#       150
#       18548
#       33069
#       50414
#       71551
#       97269
#       108790
#       118569
#       135790
#       147309
#       158094
#       173334
#       185709
# 
# Disc length: 2761 seconds
# 
# Revision: 3
# Processed by: cddbd v1.4b41PL2 Copyright (c) Steve Scherf et al.
# Submitted via: Grip 2.95
# 
DISCID=a40ac70d
DTITLE=The Beauty Shop - Yr Money or Yr Life
DYEAR=1900
DGENRE=
TTITLE0=Death March
TTITLE1=Lies
TTITLE2=Denver
TTITLE3=I Got Issues
TTITLE4=To Keep You
TTITLE5=Dutch Courage
TTITLE6=Yr Money or Yr Life
TTITLE7=Bloody Nose
TTITLE8=Shell Game
TTITLE9=Caramel Apple
TTITLE10=Art Project
TTITLE11=803 W Nevada
TTITLE12=Science Lights
EXTD=
EXTT0=
EXTT1=
EXTT2=
EXTT3=
EXTT4=
EXTT5=
EXTT6=
EXTT7=
EXTT8=
EXTT9=
EXTT10=
EXTT11=
EXTT12=
PLAYORDER=
